<svg xmlns="http://www.w3.org/2000/svg" viewBox="0 5 24 23">
  <path d="M6.31 14a7.232 7.232 0 0 1 13.62 0c.049.137.177.232.323.232h2.806a.326.326 0 0 0 .32-.403C22.22 9.244 18.066 5.85 13.12 5.85c-4.946 0-9.1 3.394-10.26 7.98a.326.326 0 0 0 .32.402h2.807A.346.346 0 0 0 6.31 14ZM5.987 18.633c.145 0 .274.094.323.232a7.232 7.232 0 0 0 13.62 0 .346.346 0 0 1 .323-.232h2.806c.213 0 .373.196.32.403-1.16 4.585-5.313 7.979-10.259 7.979-4.946 0-9.1-3.394-10.26-7.98a.326.326 0 0 1 .32-.402h2.807Z" fill="#C6FF00"/>
</svg>
